<?xml version="1.0" standalone="no"?>
<!DOCTYPE svg PUBLIC "-//W3C//DTD SVG 20010904//EN"
 "http://www.w3.org/TR/2001/REC-SVG-20010904/DTD/svg10.dtd">
<svg version="1.0" xmlns="http://www.w3.org/2000/svg"
 width="260.000000pt" height="260.000000pt" viewBox="0 0 260.000000 260.000000"
 preserveAspectRatio="xMidYMid meet">
<metadata>
Created by potrace 1.14, written by Peter Selinger 2001-2017
</metadata>
<g transform="translate(0.000000,260.000000) scale(0.100000,-0.100000)"
fill="#000000" stroke="none">
<path d="M1036 2550 c-112 -24 -226 -65 -271 -99 -19 -14 -53 -48 -76 -76 -23
-27 -46 -50 -53 -50 -6 -1 -10 -7 -8 -13 1 -7 -4 -20 -13 -28 -8 -8 -19 -33
-25 -54 -6 -22 -15 -42 -20 -45 -25 -15 -94 -186 -106 -262 -8 -52 1 -93 21
-93 21 0 19 -36 -4 -59 -10 -10 -22 -38 -26 -62 -4 -24 -16 -64 -26 -88 -10
-24 -19 -51 -19 -60 0 -9 -7 -41 -16 -71 -8 -30 -15 -68 -14 -83 0 -16 -3 -34
-7 -40 -5 -7 -8 -109 -9 -227 -1 -118 -2 -223 -4 -232 -6 -33 -19 -18 -22 25
-3 23 -5 -11 -5 -75 -1 -65 -5 -123 -9 -129 -5 -8 -2 -10 9 -6 13 5 15 0 10
-31 -3 -20 -10 -44 -15 -52 -6 -10 -7 0 -3 28 5 28 3 42 -5 42 -6 0 -9 -4 -6
-8 3 -4 1 -26 -4 -47 -8 -36 -6 -44 23 -82 18 -23 38 -43 45 -43 6 0 12 -9 12
-19 0 -11 36 -52 83 -97 169 -159 377 -267 597 -308 117 -23 331 -21 445 3
126 27 265 78 265 99 3 119 2 183 -4 209 -5 22 -3 42 8 60 27 52 51 253 27
239 -5 -3 -8 -27 -7 -53 3 -55 -2 -75 -15 -67 -13 7 -11 166 2 184 10 13 10
13 6 0 -2 -8 -1 -24 4 -35 15 -38 9 35 -10 132 -24 121 -19 202 16 268 15 28
32 55 39 60 7 6 20 35 29 66 9 32 25 76 36 99 19 40 50 129 48 140 0 3 -7 -8
-15 -25 l-15 -30 7 30 c16 74 22 339 9 403 -3 15 -8 61 -11 102 -3 41 -12 90
-20 108 -8 18 -12 38 -8 45 4 6 4 9 0 5 -16 -13 -73 64 -67 91 1 7 -2 10 -8 6
-6 -3 -11 0 -11 7 0 7 -17 29 -38 49 -20 19 -53 54 -73 76 -68 79 -195 132
-349 148 -36 4 -89 15 -118 26 -64 23 -92 23 -206 -1z m346 -640 c9 0 25 11
36 25 24 30 39 26 69 -18 13 -17 35 -45 51 -62 46 -49 55 -91 38 -185 -2 -8
-6 -23 -10 -32 -4 -9 -8 -23 -10 -31 -3 -25 -36 -67 -51 -67 -8 0 -15 -4 -15
-10 0 -12 2 -12 34 0 40 15 31 1 -11 -17 -27 -12 -33 -18 -20 -21 9 -2 15 -8
12 -13 -10 -16 27 -10 46 7 20 18 21 25 -10 -76 -6 -18 -6 -30 0 -30 5 0 9 5
9 10 0 6 8 10 17 10 9 0 24 6 32 14 20 18 77 33 68 19 -4 -6 -19 -14 -34 -18
-33 -8 -83 -52 -84 -74 -1 -9 -5 -5 -9 9 -7 21 -8 21 -9 5 -1 -23 12 -47 25
-46 5 1 9 -5 9 -11 0 -7 14 -16 30 -19 47 -10 115 -10 115 0 0 6 -17 7 -37 4
l-38 -5 33 31 c31 31 59 34 48 5 -3 -7 -1 -16 4 -19 25 -15 0 -172 -33 -213
-24 -30 -22 -182 4 -275 36 -130 39 -141 39 -192 l0 -50 -37 55 c-21 30 -38
62 -40 70 -1 8 -10 21 -20 28 -60 42 -99 63 -138 73 -42 11 -56 22 -37 31 4 2
23 21 42 42 35 39 34 39 -21 -7 -62 -52 -70 -55 -90 -30 -22 26 -97 55 -122
48 -12 -4 -45 -23 -74 -42 -39 -27 -58 -34 -77 -29 -14 3 -69 48 -121 99 -78
77 -100 105 -130 169 -19 43 -38 91 -41 108 -6 30 -19 40 -26 19 -2 -6 -13 -2
-27 10 -13 11 -27 18 -32 16 -12 -8 -21 13 -14 36 4 12 12 18 21 15 11 -4 13
0 9 17 -9 34 13 68 97 152 71 70 108 98 77 58 -11 -15 -10 -14 9 1 23 20 31
43 11 30 -7 -4 -1 7 11 24 13 18 26 30 28 27 3 -3 -1 -13 -9 -23 -8 -10 -4 -7
9 6 13 14 21 31 18 39 -3 8 -1 11 4 8 6 -3 10 1 10 9 0 25 2 29 26 55 21 22
104 213 104 238 0 17 29 24 50 13 31 -16 76 -12 95 10 l18 20 27 -25 c14 -14
33 -25 42 -25z m378 5 c0 -8 5 -17 10 -20 7 -4 8 3 4 22 -7 25 -6 27 10 14 9
-8 14 -16 12 -19 -6 -5 22 -62 30 -62 3 0 2 10 -1 23 -4 15 0 11 15 -12 22
-35 21 -64 -4 -55 -8 3 -17 17 -20 30 -4 14 -10 22 -15 20 -5 -3 -8 2 -7 11 0
10 -5 18 -12 18 -8 0 -20 9 -28 19 -16 23 -19 40 -4 31 6 -3 10 -12 10 -20z
m107 -37 c-3 -8 -6 -5 -6 6 -1 11 2 17 5 13 3 -3 4 -12 1 -19z m-77 -48 c9 -6
30 -46 30 -56 0 -4 -7 1 -16 12 -15 19 -16 19 -9 -1 11 -35 -8 -6 -22 33 -16
45 -16 64 -1 37 6 -11 14 -22 18 -25z m-204 -368 c0 -10 -9 -27 -19 -37 -18
-20 -18 -19 -7 9 18 49 26 57 26 28z m335 -39 c-8 -15 -10 -15 -11 -2 0 17 10
32 18 25 2 -3 -1 -13 -7 -23z m-276 -43 c3 -6 -1 -13 -10 -16 -19 -8 -30 0
-20 15 8 14 22 14 30 1z m-903 -54 c-17 -33 -17 -33 -20 -9 -2 14 2 30 10 34
25 16 28 9 10 -25z m902 -11 c-6 -16 -44 -21 -44 -7 0 14 12 22 31 22 12 0 16
-5 13 -15z m-1267 -27 c-3 -7 -5 -2 -5 12 0 14 2 19 5 13 2 -7 2 -19 0 -25z
m397 -120 c-4 -6 1 -17 10 -24 11 -8 13 -14 7 -19 -8 -4 -8 -12 -1 -26 6 -10
7 -19 3 -19 -14 1 -43 27 -43 39 0 6 -5 11 -10 11 -6 0 -3 11 6 25 16 24 43
37 28 13z m66 -73 c0 -5 -5 -3 -10 5 -5 8 -10 20 -10 25 0 6 5 3 10 -5 5 -8
10 -19 10 -25z m23 -62 c31 -49 95 -128 142 -178 47 -49 85 -91 85 -91 0 -8
-71 -28 -90 -26 -15 2 -38 -6 -52 -18 -46 -36 -131 -70 -145 -59 -6 6 -16 8
-21 5 -6 -3 -7 55 -4 147 3 97 1 172 -7 206 -12 58 -9 70 12 53 19 -16 28 -4
21 24 -4 13 -4 24 -1 24 2 0 30 -39 60 -87z m-114 -33 l-1 -45 -9 40 c-4 22
-8 49 -8 60 -1 17 1 17 9 5 5 -8 9 -35 9 -60z m952 -56 c-1 -10 -1 -26 -2 -34
0 -8 2 -31 5 -50 5 -29 4 -27 -9 10 -17 53 -21 120 -4 103 5 -5 10 -19 10 -29z
m-1326 -129 c-3 -36 -11 -63 -16 -60 -12 8 -12 62 1 70 6 4 8 11 5 16 -4 5 -3
18 0 30 12 38 17 10 10 -56z m1313 -220 c-3 -3 -9 2 -12 12 -6 14 -5 15 5 6 7
-7 10 -15 7 -18z m-1307 -18 c-10 -9 -11 -8 -5 6 3 10 9 15 12 12 3 -3 0 -11
-7 -18z m1390 -40 c-8 -8 -11 -4 -11 14 0 33 14 47 18 19 2 -12 -1 -27 -7 -33z
m13 -42 c-4 -8 -10 -15 -15 -15 -4 0 -6 7 -3 15 4 8 10 15 15 15 4 0 6 -7 3
-15z"/>
<path d="M1055 1662 c-3 -3 32 -18 79 -33 88 -28 216 -88 216 -101 0 -5 11 -8
25 -8 28 0 30 7 11 33 -33 43 -307 133 -331 109z"/>
<path d="M1000 1490 c5 -9 16 -22 24 -29 8 -7 12 -19 9 -27 -4 -12 6 -14 53
-14 65 2 109 -9 160 -39 19 -11 34 -16 34 -11 0 6 9 10 21 10 16 0 19 4 14 20
-5 16 -3 19 11 13 12 -4 15 -3 10 5 -4 7 -16 12 -27 12 -11 0 -29 5 -40 11
-20 10 -20 11 -3 30 10 11 12 19 6 19 -7 0 -12 -4 -12 -10 0 -5 -11 -12 -25
-16 -14 -3 -22 -10 -19 -15 3 -5 -4 -9 -15 -9 -12 0 -21 5 -21 10 0 6 4 10 9
10 5 0 11 9 14 21 4 15 2 18 -6 10 -17 -14 -124 -12 -169 3 -34 12 -37 12 -28
-4z"/>
<path d="M1210 1041 c0 -5 7 -12 16 -15 14 -5 15 -4 4 9 -14 17 -20 19 -20 6z"/>
<path d="M1258 1013 c7 -3 26 -32 43 -64 42 -83 99 -117 143 -84 22 17 41 136
19 128 -8 -3 -10 -15 -7 -33 6 -29 -5 -57 -32 -84 -21 -21 -27 -20 -64 10 -27
23 -66 91 -57 100 2 2 20 -1 40 -7 27 -7 37 -15 37 -29 0 -11 4 -20 10 -20 5
0 7 7 3 16 -3 9 0 20 8 24 20 13 10 18 -51 21 -30 2 -61 10 -68 17 -7 6 -19
12 -25 11 -8 0 -8 -2 1 -6z"/>
<path d="M1962 1900 c0 -19 2 -27 5 -17 2 9 2 25 0 35 -3 9 -5 1 -5 -18z"/>
<path d="M1951 1584 c0 -11 3 -14 6 -6 3 7 2 16 -1 19 -3 4 -6 -2 -5 -13z"/>
<path d="M2196 1512 c-2 -4 7 -8 22 -7 22 0 27 -6 35 -40 9 -40 2 -378 -10
-468 -4 -38 -11 -51 -29 -59 -19 -9 -28 -8 -44 7 -17 15 -20 16 -20 3 0 -9 7
-21 15 -28 12 -10 21 -9 47 3 18 9 35 14 38 12 13 -8 58 42 64 70 5 22 4 26
-4 15 -5 -8 -10 -22 -10 -31 0 -9 -11 -24 -25 -33 l-24 -16 5 42 c3 24 8 50
10 58 10 27 4 403 -7 442 -8 31 -14 38 -34 38 -13 0 -26 -4 -29 -8z"/>
<path d="M2173 1472 c-10 -17 -6 -128 4 -118 13 12 14 79 2 87 -10 6 -10 11 1
23 7 9 11 18 9 21 -3 2 -10 -4 -16 -13z"/>
<path d="M1995 1460 c3 -9 -3 -19 -17 -25 -21 -10 -45 -65 -28 -65 4 0 11 11
14 25 11 44 33 28 56 -41 12 -36 24 -63 27 -60 8 8 -27 143 -43 163 -9 12 -12
13 -9 3z"/>
<path d="M1932 1310 c0 -14 2 -19 5 -12 2 6 2 18 0 25 -3 6 -5 1 -5 -13z"/>
<path d="M1943 1243 c1 -24 4 -43 8 -43 11 0 30 -91 23 -112 -4 -15 -3 -18 6
-13 9 5 10 2 6 -13 -6 -18 17 -133 31 -155 3 -5 10 -4 16 2 7 7 7 14 0 23 -6
7 -13 31 -16 53 -11 73 -55 264 -66 282 -8 14 -10 9 -8 -24z"/>
<path d="M353 1215 c0 -22 2 -30 4 -17 2 12 2 30 0 40 -3 9 -5 -1 -4 -23z"/>
<path d="M338 1105 c-1 -30 0 -55 5 -55 4 0 7 25 7 55 0 71 -7 71 -12 0z"/>
<path d="M2120 1108 c-23 -19 -24 -19 -31 -1 -12 30 -10 0 6 -83 8 -43 19 -82
25 -88 13 -13 13 -4 -5 66 -17 64 -12 82 27 97 10 3 14 11 10 18 -5 8 -14 5
-32 -9z"/>
<path d="M2398 1042 c13 -17 17 -33 12 -42 -11 -22 -21 -107 -9 -89 5 7 9 28
9 46 0 17 7 38 15 46 13 13 12 18 -6 41 -27 35 -46 33 -21 -2z"/>
<path d="M2361 994 c0 -11 3 -14 6 -6 3 7 2 16 -1 19 -3 4 -6 -2 -5 -13z"/>
<path d="M2228 886 c-26 -17 -48 -34 -48 -38 0 -11 64 29 85 52 23 26 20 24
-37 -14z"/>
<path d="M2350 876 c0 -32 -43 -84 -101 -121 l-61 -40 35 -30 c20 -16 37 -39
40 -50 4 -18 5 -18 12 -2 10 24 0 44 -34 65 l-30 18 22 14 c12 8 27 14 34 15
31 1 123 145 92 145 -5 0 -9 -6 -9 -14z"/>
<path d="M2360 825 c-7 -20 -10 -39 -7 -41 3 -3 10 11 17 31 7 20 10 39 7 41
-3 3 -10 -11 -17 -31z"/>
<path d="M2150 840 c-8 -5 -12 -11 -9 -14 2 -3 11 -1 19 4 8 5 12 11 9 14 -2
3 -11 1 -19 -4z"/>
<path d="M2023 795 c2 -23 -2 -29 -15 -27 -13 2 -16 -2 -11 -15 3 -10 9 -22
13 -28 12 -17 54 -159 51 -173 -1 -8 5 -22 15 -33 10 -11 16 -34 16 -59 0 -22
3 -40 8 -40 5 0 25 19 45 42 35 42 36 43 14 52 -16 8 -24 6 -34 -7 -10 -14
-17 -2 -49 83 -21 54 -39 114 -39 132 -2 28 4 37 48 66 31 22 41 32 25 27 -14
-4 -29 -11 -34 -16 -16 -15 -44 -10 -50 9 -2 9 -4 4 -3 -13z"/>
</g>
</svg>
